<?xml version="1.0" encoding="iso-8859-1"?>
<!-- Generator: Adobe Illustrator 16.0.0, SVG Export Plug-In . SVG Version: 6.00 Build 0)  -->
<!DOCTYPE svg PUBLIC "-//W3C//DTD SVG 1.1//EN" "http://www.w3.org/Graphics/SVG/1.1/DTD/svg11.dtd">
<svg version="1.1" id="Capa_1" xmlns="http://www.w3.org/2000/svg" xmlns:xlink="http://www.w3.org/1999/xlink" x="0px" y="0px"
	 width="231.867px" height="231.868px" viewBox="0 0 231.867 231.868" style="enable-background:new 0 0 231.867 231.868;"
	 xml:space="preserve">
<g>
	<path d="M94.82,79.721l5.423-5.429L87.405,61.454l-5.423,5.429c-2.379-1.351-4.92-2.403-7.616-3.153v-7.669H56.208v7.669
		c-2.674,0.745-5.234,1.809-7.613,3.153l-5.423-5.429L30.34,74.292l5.429,5.429c-1.356,2.379-2.402,4.921-3.153,7.613H24.94v18.158
		h7.675c0.745,2.68,1.806,5.23,3.147,7.598l-5.423,5.426l12.832,12.839l5.423-5.427c2.379,1.348,4.926,2.4,7.613,3.151v7.689h18.158
		v-7.689c2.684-0.745,5.237-1.804,7.616-3.151l5.423,5.427l12.838-12.839l-5.423-5.426c1.348-2.373,2.396-4.917,3.153-7.598h7.672
		V87.334h-7.681C97.223,84.642,96.162,82.094,94.82,79.721z M65.287,112.192c-8.704,0-15.779-7.075-15.779-15.772
		c0-8.704,7.081-15.791,15.779-15.791c8.704,0,15.788,7.087,15.788,15.791C81.081,105.111,73.997,112.192,65.287,112.192z
		 M174.551,174.639c11.68,0,21.184-9.498,21.184-21.189c0-11.68-9.504-21.179-21.184-21.179c-11.686,0-21.185,9.499-21.185,21.179
		C153.366,165.141,162.877,174.639,174.551,174.639z M174.551,144.376c5.012,0,9.079,4.066,9.079,9.073
		c0,5.012-4.067,9.084-9.079,9.084c-5.001,0-9.079-4.072-9.079-9.084C165.472,148.443,169.544,144.376,174.551,144.376z
		 M231.867,159.497v-12.105h-16.432c-1.017-6.887-3.724-13.211-7.708-18.561l11.633-11.638l-8.559-8.559l-11.633,11.644
		c-5.231-3.906-11.432-6.578-18.158-7.648h0.337V21.083H0v139.21h133.784c1.111,6.585,3.759,12.632,7.577,17.78l-11.62,11.62
		l8.559,8.57l11.633-11.62c5.343,3.978,11.68,6.686,18.56,7.702v16.438h12.105V194.34c6.892-1.018,13.216-3.725,18.56-7.708
		l11.645,11.62l8.547-8.559l-11.621-11.62c3.966-5.355,6.68-11.691,7.69-18.577H231.867L231.867,159.497z M174.551,124.179
		c16.147,0,29.281,13.128,29.281,29.265c0,16.147-13.134,29.287-29.281,29.287c-16.137,0-29.271-13.14-29.271-29.287
		C145.28,137.307,158.414,124.179,174.551,124.179z M12.105,33.189h157.131v79.27c-7.187,0.922-13.76,3.688-19.304,7.819
		L138.3,108.634l-8.559,8.559l11.632,11.638c-4.138,5.557-6.915,12.171-7.825,19.358H12.105V33.189z M96.097,41.263h23.206v12.105
		H96.097V41.263z M155.624,53.368h-23.205V41.263h23.205V53.368z"/>
</g>
<g>
</g>
<g>
</g>
<g>
</g>
<g>
</g>
<g>
</g>
<g>
</g>
<g>
</g>
<g>
</g>
<g>
</g>
<g>
</g>
<g>
</g>
<g>
</g>
<g>
</g>
<g>
</g>
<g>
</g>
</svg>
